<svg width="200" height="200" viewBox="0 0 200 200" fill="none" xmlns="http://www.w3.org/2000/svg">
<path fill-rule="evenodd" clip-rule="evenodd" d="M35.0828 47.5332L43.0469 55.5053H60.1692H77.2906L85.2255 47.5332L93.1604 39.5611H60.1391H27.1187L35.0828 47.5332ZM96.5096 54.8498L81.2394 70.1394L81.2793 106.89L81.3192 143.641L92.8504 155.54L104.381 167.439L115.852 155.967L127.323 144.496L127.091 112.825L126.858 81.1533L116.671 89.6958C111.068 94.3941 106.285 98.4448 106.042 98.6981C105.621 99.1357 109.129 98.4696 112.464 97.4784C113.906 97.0497 114.014 98.3252 114.014 115.758V134.496L109.216 139.489L104.42 144.48L100.838 140.518L97.2563 136.555L97.22 106.424L97.1836 76.2939L107.605 65.8991L118.026 55.5053H137.519H157.012L164.946 47.5332L172.881 39.5611H142.331H111.781L96.5096 54.8498Z" fill="#0D0D0D"/>
</svg>
